<svg xmlns="http://www.w3.org/2000/svg" viewBox="0 0 375 375">
  <path fill="#10306b" d="M 375 333.332031 C 375 356.34375 356.34375 375 333.332031 375 L 41.667969 375 C 18.65625 375 0 356.34375 0 333.332031 L 0 41.667969 C 0 18.65625 18.65625 0 41.667969 0 L 333.332031 0 C 356.34375 0 375 18.65625 375 41.667969 Z M 375 333.332031" fill-opacity="1" fill-rule="nonzero"/>
  <path fill="#ffffff" d="M 109.355469 96.34375 C 109.355469 80.84375 120.011719 72.125 134.863281 72.125 L 196.875 72.125 C 230.457031 72.125 257.605469 94.730469 257.605469 128.96875 C 257.605469 151.574219 248.230469 166.761719 227.550781 176.449219 L 227.550781 177.09375 C 255.019531 180.96875 276.644531 203.894531 276.644531 232 C 276.644531 277.542969 246.292969 302.09375 201.71875 302.09375 L 135.199219 302.09375 C 120.332031 302.09375 109.355469 292.730469 109.355469 277.550781 Z M 157.800781 163.199219 L 183 163.199219 C 198.824219 163.199219 209.15625 153.832031 209.15625 137.675781 C 209.15625 122.5 197.207031 114.75 183 114.75 L 157.800781 114.75 Z M 157.800781 259.449219 L 195.917969 259.449219 C 213.355469 259.449219 226.28125 249.4375 226.28125 231.355469 C 226.28125 216.167969 214.644531 205.832031 192.042969 205.832031 L 157.800781 205.832031 Z M 157.800781 259.449219" fill-opacity="1" fill-rule="nonzero"/>
</svg>
